<svg xmlns="http://www.w3.org/2000/svg" xmlns:xlink="http://www.w3.org/1999/xlink" contentStyleType="text/css" data-diagram-type="ACTIVITY" height="874px" preserveAspectRatio="none" style="width:3072px;height:874px;background:#FFFFFF;" version="1.1" viewBox="0 0 3072 874" width="3072px" zoomAndPan="magnify"><defs/><g><ellipse cx="1380.204" cy="20" fill="#222222" rx="10" ry="10" style="stroke:#222222;stroke-width:1;"/><polygon fill="#F1F1F1" points="1269.9033,50,1490.5048,50,1502.5048,62,1490.5048,74,1269.9033,74,1257.9033,62,1269.9033,50" style="stroke:#181818;stroke-width:0.5;"/><text fill="#000000" font-family="sans-serif" font-size="11" lengthAdjust="spacing" textLength="220.6016" x="1269.9033" y="65.8081">Does the 'Wait to Start' light illuminate?</text><text fill="#000000" font-family="sans-serif" font-size="11" lengthAdjust="spacing" textLength="19.2178" x="1238.6855" y="59.4058">Yes</text><text fill="#000000" font-family="sans-serif" font-size="11" lengthAdjust="spacing" textLength="14.9585" x="1502.5048" y="59.4058">No</text><rect fill="#F1F1F1" height="33.9688" rx="12.5" ry="12.5" style="stroke:#181818;stroke-width:0.5;" width="45.9688" x="270.0369" y="84"/><text fill="#000000" font-family="sans-serif" font-size="12" lengthAdjust="spacing" textLength="25.9688" x="280.0369" y="105.1387">PCM</text><polygon fill="#F1F1F1" points="168.5703,137.9688,417.4722,137.9688,429.4722,149.9688,417.4722,161.9688,168.5703,161.9688,156.5703,149.9688,168.5703,137.9688" style="stroke:#181818;stroke-width:0.5;"/><text fill="#000000" font-family="sans-serif" font-size="11" lengthAdjust="spacing" textLength="248.9019" x="168.5703" y="153.7769">Is there a loose chip or programmer on PCM?</text><text fill="#000000" font-family="sans-serif" font-size="11" lengthAdjust="spacing" textLength="19.2178" x="137.3525" y="147.3745">Yes</text><text fill="#000000" font-family="sans-serif" font-size="11" lengthAdjust="spacing" textLength="14.9585" x="429.4722" y="147.3745">No</text><rect fill="#F1F1F1" height="33.9688" rx="12.5" ry="12.5" style="stroke:#181818;stroke-width:0.5;" width="98.2051" x="11" y="171.9688"/><text fill="#000000" font-family="sans-serif" font-size="12" lengthAdjust="spacing" textLength="78.2051" x="21" y="193.1074">Remove chip</text><ellipse cx="60.1025" cy="236.9375" fill="transparent" rx="11" ry="11" style="stroke:#222222;stroke-width:1;"/><ellipse cx="60.1025" cy="236.9375" fill="#222222" rx="6" ry="6" style="stroke:#222222;stroke-width:1;"/><rect fill="#F1F1F1" height="33.9688" rx="12.5" ry="12.5" style="stroke:#181818;stroke-width:0.5;" width="67.2266" x="532.3267" y="171.9688"/><text fill="#000000" font-family="sans-serif" font-size="12" lengthAdjust="spacing" textLength="47.2266" x="542.3267" y="193.1074">Fuse 22</text><polygon fill="#F1F1F1" points="450.9717,225.9375,680.9082,225.9375,692.9082,237.9375,680.9082,249.9375,450.9717,249.9375,438.9717,237.9375,450.9717,225.9375" style="stroke:#181818;stroke-width:0.5;"/><text fill="#000000" font-family="sans-serif" font-size="11" lengthAdjust="spacing" textLength="229.9365" x="450.9717" y="241.7456">Check fuse 22 under the hood. Is it good?</text><text fill="#000000" font-family="sans-serif" font-size="11" lengthAdjust="spacing" textLength="19.2178" x="419.7539" y="235.3433">Yes</text><text fill="#000000" font-family="sans-serif" font-size="11" lengthAdjust="spacing" textLength="14.9585" x="692.9082" y="235.3433">No</text><rect fill="#F1F1F1" height="33.9688" rx="12.5" ry="12.5" style="stroke:#181818;stroke-width:0.5;" width="72.6172" x="374.4382" y="259.9375"/><text fill="#000000" font-family="sans-serif" font-size="12" lengthAdjust="spacing" textLength="52.6172" x="384.4382" y="281.0762">Red wire</text><polygon fill="#F1F1F1" points="276.3997,313.9063,545.094,313.9063,557.094,325.9063,545.094,337.9063,276.3997,337.9063,264.3997,325.9063,276.3997,313.9063" style="stroke:#181818;stroke-width:0.5;"/><text fill="#000000" font-family="sans-serif" font-size="11" lengthAdjust="spacing" textLength="268.6943" x="276.3997" y="329.7144">Check red wire at PCM. Does it have 12V power?</text><text fill="#000000" font-family="sans-serif" font-size="11" lengthAdjust="spacing" textLength="19.2178" x="245.1819" y="323.312">Yes</text><text fill="#000000" font-family="sans-serif" font-size="11" lengthAdjust="spacing" textLength="14.9585" x="557.094" y="323.312">No</text><rect fill="#F1F1F1" height="33.9688" rx="12.5" ry="12.5" style="stroke:#181818;stroke-width:0.5;" width="112.5605" x="198.1194" y="347.9063"/><text fill="#000000" font-family="sans-serif" font-size="12" lengthAdjust="spacing" textLength="92.5605" x="208.1194" y="369.0449">Test PCM diode</text><polygon fill="#F1F1F1" points="190.0996,401.875,318.6997,401.875,330.6997,413.875,318.6997,425.875,190.0996,425.875,178.0996,413.875,190.0996,401.875" style="stroke:#181818;stroke-width:0.5;"/><text fill="#000000" font-family="sans-serif" font-size="11" lengthAdjust="spacing" textLength="128.6001" x="190.0996" y="417.6831">Is the PCM diode good?</text><text fill="#000000" font-family="sans-serif" font-size="11" lengthAdjust="spacing" textLength="19.2178" x="158.8818" y="411.2808">Yes</text><text fill="#000000" font-family="sans-serif" font-size="11" lengthAdjust="spacing" textLength="14.9585" x="330.6997" y="411.2808">No</text><rect fill="#F1F1F1" height="33.9688" rx="12.5" ry="12.5" style="stroke:#181818;stroke-width:0.5;" width="97.7891" x="119.2051" y="435.875"/><text fill="#000000" font-family="sans-serif" font-size="12" lengthAdjust="spacing" textLength="77.7891" x="129.2051" y="457.0137">Replace PCM</text><ellipse cx="168.0996" cy="500.8438" fill="transparent" rx="11" ry="11" style="stroke:#222222;stroke-width:1;"/><ellipse cx="168.0996" cy="500.8438" fill="#222222" rx="6" ry="6" style="stroke:#222222;stroke-width:1;"/><rect fill="#F1F1F1" height="33.9688" rx="12.5" ry="12.5" style="stroke:#181818;stroke-width:0.5;" width="134.8965" x="273.2515" y="435.875"/><text fill="#000000" font-family="sans-serif" font-size="12" lengthAdjust="spacing" textLength="114.8965" x="283.2515" y="457.0137">Replace PCM diode</text><ellipse cx="340.6997" cy="500.8438" fill="transparent" rx="11" ry="11" style="stroke:#222222;stroke-width:1;"/><ellipse cx="340.6997" cy="500.8438" fill="#222222" rx="6" ry="6" style="stroke:#222222;stroke-width:1;"/><rect fill="#F1F1F1" height="33.9688" rx="12.5" ry="12.5" style="stroke:#181818;stroke-width:0.5;" width="131.709" x="501.2395" y="347.9063"/><text fill="#000000" font-family="sans-serif" font-size="12" lengthAdjust="spacing" textLength="111.709" x="511.2395" y="369.0449">Replace PCM relay</text><ellipse cx="567.094" cy="412.875" fill="transparent" rx="11" ry="11" style="stroke:#222222;stroke-width:1;"/><ellipse cx="567.094" cy="412.875" fill="#222222" rx="6" ry="6" style="stroke:#222222;stroke-width:1;"/><rect fill="#F1F1F1" height="33.9688" rx="12.5" ry="12.5" style="stroke:#181818;stroke-width:0.5;" width="116.3691" x="662.9485" y="259.9375"/><text fill="#000000" font-family="sans-serif" font-size="12" lengthAdjust="spacing" textLength="96.3691" x="672.9485" y="281.0762">Replace fuse 22</text><ellipse cx="721.1331" cy="324.9063" fill="transparent" rx="11" ry="11" style="stroke:#222222;stroke-width:1;"/><ellipse cx="721.1331" cy="324.9063" fill="#222222" rx="6" ry="6" style="stroke:#222222;stroke-width:1;"/><rect fill="#F1F1F1" height="33.9688" rx="12.5" ry="12.5" style="stroke:#181818;stroke-width:0.5;" width="92.3223" x="2491.2257" y="84"/><text fill="#000000" font-family="sans-serif" font-size="12" lengthAdjust="spacing" textLength="72.3223" x="2501.2257" y="105.1387">Tachometer</text><polygon fill="#F1F1F1" points="2428.0636,137.9688,2646.7101,137.9688,2658.7101,149.9688,2646.7101,161.9688,2428.0636,161.9688,2416.0636,149.9688,2428.0636,137.9688" style="stroke:#181818;stroke-width:0.5;"/><text fill="#000000" font-family="sans-serif" font-size="11" lengthAdjust="spacing" textLength="218.6465" x="2428.0636" y="153.7769">Does tachometer move while cranking?</text><text fill="#000000" font-family="sans-serif" font-size="11" lengthAdjust="spacing" textLength="19.2178" x="2396.8458" y="147.3745">Yes</text><text fill="#000000" font-family="sans-serif" font-size="11" lengthAdjust="spacing" textLength="14.9585" x="2658.7101" y="147.3745">No</text><rect fill="#F1F1F1" height="33.9688" rx="12.5" ry="12.5" style="stroke:#181818;stroke-width:0.5;" width="115.209" x="2022.3206" y="171.9688"/><text fill="#000000" font-family="sans-serif" font-size="12" lengthAdjust="spacing" textLength="95.209" x="2032.3206" y="193.1074">Cranking Speed</text><polygon fill="#F1F1F1" points="1969.5947,225.9375,2190.2554,225.9375,2202.2554,237.9375,2190.2554,249.9375,1969.5947,249.9375,1957.5947,237.9375,1969.5947,225.9375" style="stroke:#181818;stroke-width:0.5;"/><text fill="#000000" font-family="sans-serif" font-size="11" lengthAdjust="spacing" textLength="220.6606" x="1969.5947" y="241.7456">Is the cranking speed at least 200 RPM?</text><text fill="#000000" font-family="sans-serif" font-size="11" lengthAdjust="spacing" textLength="19.2178" x="1938.377" y="235.3433">Yes</text><text fill="#000000" font-family="sans-serif" font-size="11" lengthAdjust="spacing" textLength="14.9585" x="2202.2554" y="235.3433">No</text><rect fill="#F1F1F1" height="33.9688" rx="12.5" ry="12.5" style="stroke:#181818;stroke-width:0.5;" width="152.0762" x="1344.4851" y="259.9375"/><text fill="#000000" font-family="sans-serif" font-size="12" lengthAdjust="spacing" textLength="132.0762" x="1354.4851" y="281.0762">Smoke while cranking</text><polygon fill="#F1F1F1" points="1335.0396,313.9063,1506.0068,313.9063,1518.0068,325.9063,1506.0068,337.9063,1335.0396,337.9063,1323.0396,325.9063,1335.0396,313.9063" style="stroke:#181818;stroke-width:0.5;"/><text fill="#000000" font-family="sans-serif" font-size="11" lengthAdjust="spacing" textLength="170.9673" x="1335.0396" y="329.7144">Is there smoke while cranking?</text><text fill="#000000" font-family="sans-serif" font-size="11" lengthAdjust="spacing" textLength="19.2178" x="1303.8218" y="323.312">Yes</text><text fill="#000000" font-family="sans-serif" font-size="11" lengthAdjust="spacing" textLength="14.9585" x="1518.0068" y="323.312">No</text><rect fill="#F1F1F1" height="33.9688" rx="12.5" ry="12.5" style="stroke:#181818;stroke-width:0.5;" width="116.7207" x="789.3176" y="347.9063"/><text fill="#000000" font-family="sans-serif" font-size="12" lengthAdjust="spacing" textLength="96.7207" x="799.3176" y="369.0449">Glow Plug Relay</text><ellipse cx="847.678" cy="412.875" fill="transparent" rx="11" ry="11" style="stroke:#222222;stroke-width:1;"/><ellipse cx="847.678" cy="412.875" fill="#222222" rx="6" ry="6" style="stroke:#222222;stroke-width:1;"/><rect fill="#F1F1F1" height="33.9688" rx="12.5" ry="12.5" style="stroke:#181818;stroke-width:0.5;" width="105.1191" x="1990.8088" y="347.9063"/><text fill="#000000" font-family="sans-serif" font-size="12" lengthAdjust="spacing" textLength="85.1191" x="2000.8088" y="369.0449">Crankcase full</text><polygon fill="#F1F1F1" points="1970.0234,401.875,2116.7134,401.875,2128.7134,413.875,2116.7134,425.875,1970.0234,425.875,1958.0234,413.875,1970.0234,401.875" style="stroke:#181818;stroke-width:0.5;"/><text fill="#000000" font-family="sans-serif" font-size="11" lengthAdjust="spacing" textLength="146.6899" x="1970.0234" y="417.6831">Is the crankcase full of oil?</text><text fill="#000000" font-family="sans-serif" font-size="11" lengthAdjust="spacing" textLength="19.2178" x="1938.8057" y="411.2808">Yes</text><text fill="#000000" font-family="sans-serif" font-size="11" lengthAdjust="spacing" textLength="14.9585" x="2128.7134" y="411.2808">No</text><rect fill="#F1F1F1" height="33.9688" rx="12.5" ry="12.5" style="stroke:#181818;stroke-width:0.5;" width="118.2617" x="1602.7842" y="435.875"/><text fill="#000000" font-family="sans-serif" font-size="12" lengthAdjust="spacing" textLength="98.2617" x="1612.7842" y="457.0137">Fuel in fuel bowl</text><polygon fill="#F1F1F1" points="1581.7568,489.8438,1742.0732,489.8438,1754.0732,501.8438,1742.0732,513.8438,1581.7568,513.8438,1569.7568,501.8438,1581.7568,489.8438" style="stroke:#181818;stroke-width:0.5;"/><text fill="#000000" font-family="sans-serif" font-size="11" lengthAdjust="spacing" textLength="160.3164" x="1581.7568" y="505.6519">Is there fuel in the fuel bowl?</text><text fill="#000000" font-family="sans-serif" font-size="11" lengthAdjust="spacing" textLength="19.2178" x="1550.5391" y="499.2495">Yes</text><text fill="#000000" font-family="sans-serif" font-size="11" lengthAdjust="spacing" textLength="14.9585" x="1754.0732" y="499.2495">No</text><rect fill="#F1F1F1" height="33.9688" rx="12.5" ry="12.5" style="stroke:#181818;stroke-width:0.5;" width="179.3164" x="1280.9453" y="523.8438"/><text fill="#000000" font-family="sans-serif" font-size="12" lengthAdjust="spacing" textLength="159.3164" x="1290.9453" y="544.9824">Fuel Pressure at Regulator</text><polygon fill="#F1F1F1" points="1193.5696,577.8125,1547.6375,577.8125,1559.6375,589.8125,1547.6375,601.8125,1193.5696,601.8125,1181.5696,589.8125,1193.5696,577.8125" style="stroke:#181818;stroke-width:0.5;"/><text fill="#000000" font-family="sans-serif" font-size="11" lengthAdjust="spacing" textLength="354.0679" x="1193.5696" y="593.6206">Test the fuel pressure at the regulator. Is it greater than 20 PSI?</text><text fill="#000000" font-family="sans-serif" font-size="11" lengthAdjust="spacing" textLength="19.2178" x="1162.3518" y="587.2183">Yes</text><text fill="#000000" font-family="sans-serif" font-size="11" lengthAdjust="spacing" textLength="14.9585" x="1559.6375" y="587.2183">No</text><rect fill="#F1F1F1" height="33.9688" rx="12.5" ry="12.5" style="stroke:#181818;stroke-width:0.5;" width="93.6699" x="1097.6108" y="611.8125"/><text fill="#000000" font-family="sans-serif" font-size="12" lengthAdjust="spacing" textLength="73.6699" x="1107.6108" y="632.9512">Check HPOP</text><polygon fill="#F1F1F1" points="1013.0715,665.7813,1275.8201,665.7813,1287.8201,677.7813,1275.8201,689.7813,1013.0715,689.7813,1001.0715,677.7813,1013.0715,665.7813" style="stroke:#181818;stroke-width:0.5;"/><text fill="#000000" font-family="sans-serif" font-size="11" lengthAdjust="spacing" textLength="262.7485" x="1013.0715" y="681.5894">Check the HPOP pressure. Is it at least 500 PSI?</text><text fill="#000000" font-family="sans-serif" font-size="11" lengthAdjust="spacing" textLength="19.2178" x="981.8538" y="675.187">Yes</text><text fill="#000000" font-family="sans-serif" font-size="11" lengthAdjust="spacing" textLength="14.9585" x="1287.8201" y="675.187">No</text><rect fill="#F1F1F1" height="33.9688" rx="12.5" ry="12.5" style="stroke:#181818;stroke-width:0.5;" width="150.0664" x="916.0383" y="699.7813"/><text fill="#000000" font-family="sans-serif" font-size="12" lengthAdjust="spacing" textLength="130.0664" x="926.0383" y="720.9199">Bad IDM, PCM, Wiring</text><ellipse cx="991.0715" cy="764.75" fill="transparent" rx="11" ry="11" style="stroke:#222222;stroke-width:1;"/><ellipse cx="991.0715" cy="764.75" fill="#222222" rx="6" ry="6" style="stroke:#222222;stroke-width:1;"/><rect fill="#F1F1F1" height="33.9688" rx="12.5" ry="12.5" style="stroke:#181818;stroke-width:0.5;" width="104.9434" x="1245.3484" y="699.7813"/><text fill="#000000" font-family="sans-serif" font-size="12" lengthAdjust="spacing" textLength="84.9434" x="1255.3484" y="720.9199">Check IPR Nut</text><polygon fill="#F1F1F1" points="1180.5234,753.75,1415.1167,753.75,1427.1167,765.75,1415.1167,777.75,1180.5234,777.75,1168.5234,765.75,1180.5234,753.75" style="stroke:#181818;stroke-width:0.5;"/><text fill="#000000" font-family="sans-serif" font-size="11" lengthAdjust="spacing" textLength="234.5933" x="1180.5234" y="769.5581">Is the tin nut on the IPR present and tight?</text><text fill="#000000" font-family="sans-serif" font-size="11" lengthAdjust="spacing" textLength="19.2178" x="1149.3057" y="763.1558">Yes</text><text fill="#000000" font-family="sans-serif" font-size="11" lengthAdjust="spacing" textLength="14.9585" x="1427.1167" y="763.1558">No</text><rect fill="#F1F1F1" height="33.9688" rx="12.5" ry="12.5" style="stroke:#181818;stroke-width:0.5;" width="106.7012" x="1105.1729" y="787.75"/><text fill="#000000" font-family="sans-serif" font-size="12" lengthAdjust="spacing" textLength="86.7012" x="1115.1729" y="808.8887">Bad HPOP, IPR</text><ellipse cx="1158.5234" cy="852.7188" fill="transparent" rx="11" ry="11" style="stroke:#222222;stroke-width:1;"/><ellipse cx="1158.5234" cy="852.7188" fill="#222222" rx="6" ry="6" style="stroke:#222222;stroke-width:1;"/><rect fill="#F1F1F1" height="33.9688" rx="12.5" ry="12.5" style="stroke:#181818;stroke-width:0.5;" width="113.6094" x="1380.312" y="787.75"/><text fill="#000000" font-family="sans-serif" font-size="12" lengthAdjust="spacing" textLength="93.6094" x="1390.312" y="808.8887">Tighten IPR Nut</text><ellipse cx="1437.1167" cy="852.7188" fill="transparent" rx="11" ry="11" style="stroke:#222222;stroke-width:1;"/><ellipse cx="1437.1167" cy="852.7188" fill="#222222" rx="6" ry="6" style="stroke:#222222;stroke-width:1;"/><rect fill="#F1F1F1" height="33.9688" rx="12.5" ry="12.5" style="stroke:#181818;stroke-width:0.5;" width="125.6797" x="1533.9214" y="611.8125"/><text fill="#000000" font-family="sans-serif" font-size="12" lengthAdjust="spacing" textLength="105.6797" x="1543.9214" y="632.9512">Clean FPR Screen</text><ellipse cx="1596.7612" cy="676.7813" fill="transparent" rx="11" ry="11" style="stroke:#222222;stroke-width:1;"/><ellipse cx="1596.7612" cy="676.7813" fill="#222222" rx="6" ry="6" style="stroke:#222222;stroke-width:1;"/><rect fill="#F1F1F1" height="33.9688" rx="12.5" ry="12.5" style="stroke:#181818;stroke-width:0.5;" width="106.9707" x="1899.7412" y="523.8438"/><text fill="#000000" font-family="sans-serif" font-size="12" lengthAdjust="spacing" textLength="86.9707" x="1909.7412" y="544.9824">Multiple Tanks</text><polygon fill="#F1F1F1" points="1848.0847,577.8125,2058.3684,577.8125,2070.3684,589.8125,2058.3684,601.8125,1848.0847,601.8125,1836.0847,589.8125,1848.0847,577.8125" style="stroke:#181818;stroke-width:0.5;"/><text fill="#000000" font-family="sans-serif" font-size="11" lengthAdjust="spacing" textLength="210.2837" x="1848.0847" y="593.6206">Does the vehicle have multiple tanks?</text><text fill="#000000" font-family="sans-serif" font-size="11" lengthAdjust="spacing" textLength="19.2178" x="1816.8669" y="587.2183">Yes</text><text fill="#000000" font-family="sans-serif" font-size="11" lengthAdjust="spacing" textLength="14.9585" x="2070.3684" y="587.2183">No</text><rect fill="#F1F1F1" height="33.9688" rx="12.5" ry="12.5" style="stroke:#181818;stroke-width:0.5;" width="181.127" x="1699.6011" y="611.8125"/><text fill="#000000" font-family="sans-serif" font-size="12" lengthAdjust="spacing" textLength="161.127" x="1709.6011" y="632.9512">Single Tank Fuel Diagnosis</text><ellipse cx="1790.1646" cy="676.7813" fill="transparent" rx="11" ry="11" style="stroke:#222222;stroke-width:1;"/><ellipse cx="1790.1646" cy="676.7813" fill="#222222" rx="6" ry="6" style="stroke:#222222;stroke-width:1;"/><rect fill="#F1F1F1" height="33.9688" rx="12.5" ry="12.5" style="stroke:#181818;stroke-width:0.5;" width="207.0313" x="2012.7729" y="611.8125"/><text fill="#000000" font-family="sans-serif" font-size="12" lengthAdjust="spacing" textLength="187.0313" x="2022.7729" y="632.9512">Symptoms same on both tanks</text><polygon fill="#F1F1F1" points="1995.5679,665.7813,2237.0093,665.7813,2249.0093,677.7813,2237.0093,689.7813,1995.5679,689.7813,1983.5679,677.7813,1995.5679,665.7813" style="stroke:#181818;stroke-width:0.5;"/><text fill="#000000" font-family="sans-serif" font-size="11" lengthAdjust="spacing" textLength="241.4414" x="1995.5679" y="681.5894">Are the symptoms the same on both tanks?</text><text fill="#000000" font-family="sans-serif" font-size="11" lengthAdjust="spacing" textLength="19.2178" x="1964.3501" y="675.187">Yes</text><text fill="#000000" font-family="sans-serif" font-size="11" lengthAdjust="spacing" textLength="14.9585" x="2249.0093" y="675.187">No</text><rect fill="#F1F1F1" height="33.9688" rx="12.5" ry="12.5" style="stroke:#181818;stroke-width:0.5;" width="125.6797" x="1910.728" y="699.7813"/><text fill="#000000" font-family="sans-serif" font-size="12" lengthAdjust="spacing" textLength="105.6797" x="1920.728" y="720.9199">Clean FPR Screen</text><ellipse cx="1973.5679" cy="764.75" fill="transparent" rx="11" ry="11" style="stroke:#222222;stroke-width:1;"/><ellipse cx="1973.5679" cy="764.75" fill="#222222" rx="6" ry="6" style="stroke:#222222;stroke-width:1;"/><rect fill="#F1F1F1" height="33.9688" rx="12.5" ry="12.5" style="stroke:#181818;stroke-width:0.5;" width="168.2539" x="2174.8823" y="699.7813"/><text fill="#000000" font-family="sans-serif" font-size="12" lengthAdjust="spacing" textLength="148.2539" x="2184.8823" y="720.9199">Fuel Line Selector Issues</text><ellipse cx="2259.0093" cy="764.75" fill="transparent" rx="11" ry="11" style="stroke:#222222;stroke-width:1;"/><ellipse cx="2259.0093" cy="764.75" fill="#222222" rx="6" ry="6" style="stroke:#222222;stroke-width:1;"/><rect fill="#F1F1F1" height="33.9688" rx="12.5" ry="12.5" style="stroke:#181818;stroke-width:0.5;" width="63.3711" x="2353.1362" y="435.875"/><text fill="#000000" font-family="sans-serif" font-size="12" lengthAdjust="spacing" textLength="43.3711" x="2363.1362" y="457.0137">Add Oil</text><ellipse cx="2384.8218" cy="500.8438" fill="transparent" rx="11" ry="11" style="stroke:#222222;stroke-width:1;"/><ellipse cx="2384.8218" cy="500.8438" fill="#222222" rx="6" ry="6" style="stroke:#222222;stroke-width:1;"/><rect fill="#F1F1F1" height="33.9688" rx="12.5" ry="12.5" style="stroke:#181818;stroke-width:0.5;" width="93.8984" x="2652.3777" y="259.9375"/><text fill="#000000" font-family="sans-serif" font-size="12" lengthAdjust="spacing" textLength="73.8984" x="2662.3777" y="281.0762">Battery Test</text><polygon fill="#F1F1F1" points="2519.3228,313.9063,2879.3311,313.9063,2891.3311,325.9063,2879.3311,337.9063,2519.3228,337.9063,2507.3228,325.9063,2519.3228,313.9063" style="stroke:#181818;stroke-width:0.5;"/><text fill="#000000" font-family="sans-serif" font-size="11" lengthAdjust="spacing" textLength="360.0083" x="2519.3228" y="329.7144">Load test the batteries individually. Is the voltage at least 10.5V?</text><text fill="#000000" font-family="sans-serif" font-size="11" lengthAdjust="spacing" textLength="19.2178" x="2488.105" y="323.312">Yes</text><text fill="#000000" font-family="sans-serif" font-size="11" lengthAdjust="spacing" textLength="14.9585" x="2891.3311" y="323.312">No</text><rect fill="#F1F1F1" height="33.9688" rx="12.5" ry="12.5" style="stroke:#181818;stroke-width:0.5;" width="61.6309" x="2466.5073" y="347.9063"/><text fill="#000000" font-family="sans-serif" font-size="12" lengthAdjust="spacing" textLength="41.6309" x="2476.5073" y="369.0449">Starter</text><ellipse cx="2497.3228" cy="412.875" fill="transparent" rx="11" ry="11" style="stroke:#222222;stroke-width:1;"/><ellipse cx="2497.3228" cy="412.875" fill="#222222" rx="6" ry="6" style="stroke:#222222;stroke-width:1;"/><rect fill="#F1F1F1" height="33.9688" rx="12.5" ry="12.5" style="stroke:#181818;stroke-width:0.5;" width="74.2813" x="2864.1904" y="347.9063"/><text fill="#000000" font-family="sans-serif" font-size="12" lengthAdjust="spacing" textLength="54.2813" x="2874.1904" y="369.0449">Batteries</text><ellipse cx="2901.3311" cy="412.875" fill="transparent" rx="11" ry="11" style="stroke:#222222;stroke-width:1;"/><ellipse cx="2901.3311" cy="412.875" fill="#222222" rx="6" ry="6" style="stroke:#222222;stroke-width:1;"/><rect fill="#F1F1F1" height="33.9688" rx="12.5" ry="12.5" style="stroke:#181818;stroke-width:0.5;" width="112.7539" x="2948.4717" y="171.9688"/><text fill="#000000" font-family="sans-serif" font-size="12" lengthAdjust="spacing" textLength="92.7539" x="2958.4717" y="193.1074">Bad CPS Wiring</text><ellipse cx="3004.8486" cy="236.9375" fill="transparent" rx="11" ry="11" style="stroke:#222222;stroke-width:1;"/><ellipse cx="3004.8486" cy="236.9375" fill="#222222" rx="6" ry="6" style="stroke:#222222;stroke-width:1;"/><line style="stroke:#181818;stroke-width:1;" x1="60.1025" x2="60.1025" y1="205.9375" y2="225.9375"/><polygon fill="#181818" points="56.1025,215.9375,60.1025,225.9375,64.1025,215.9375,60.1025,219.9375" style="stroke:#181818;stroke-width:1;"/><line style="stroke:#181818;stroke-width:1;" x1="168.0996" x2="168.0996" y1="469.8438" y2="489.8438"/><polygon fill="#181818" points="164.0996,479.8438,168.0996,489.8438,172.0996,479.8438,168.0996,483.8438" style="stroke:#181818;stroke-width:1;"/><line style="stroke:#181818;stroke-width:1;" x1="340.6997" x2="340.6997" y1="469.8438" y2="489.8438"/><polygon fill="#181818" points="336.6997,479.8438,340.6997,489.8438,344.6997,479.8438,340.6997,483.8438" style="stroke:#181818;stroke-width:1;"/><line style="stroke:#181818;stroke-width:1;" x1="178.0996" x2="168.0996" y1="413.875" y2="413.875"/><line style="stroke:#181818;stroke-width:1;" x1="168.0996" x2="168.0996" y1="413.875" y2="435.875"/><polygon fill="#181818" points="164.0996,425.875,168.0996,435.875,172.0996,425.875,168.0996,429.875" style="stroke:#181818;stroke-width:1;"/><line style="stroke:#181818;stroke-width:1;" x1="330.6997" x2="340.6997" y1="413.875" y2="413.875"/><line style="stroke:#181818;stroke-width:1;" x1="340.6997" x2="340.6997" y1="413.875" y2="435.875"/><polygon fill="#181818" points="336.6997,425.875,340.6997,435.875,344.6997,425.875,340.6997,429.875" style="stroke:#181818;stroke-width:1;"/><line style="stroke:#181818;stroke-width:1;" x1="254.3997" x2="254.3997" y1="381.875" y2="401.875"/><polygon fill="#181818" points="250.3997,391.875,254.3997,401.875,258.3997,391.875,254.3997,395.875" style="stroke:#181818;stroke-width:1;"/><line style="stroke:#181818;stroke-width:1;" x1="567.094" x2="567.094" y1="381.875" y2="401.875"/><polygon fill="#181818" points="563.094,391.875,567.094,401.875,571.094,391.875,567.094,395.875" style="stroke:#181818;stroke-width:1;"/><line style="stroke:#181818;stroke-width:1;" x1="264.3997" x2="254.3997" y1="325.9063" y2="325.9063"/><line style="stroke:#181818;stroke-width:1;" x1="254.3997" x2="254.3997" y1="325.9063" y2="347.9063"/><polygon fill="#181818" points="250.3997,337.9063,254.3997,347.9063,258.3997,337.9063,254.3997,341.9063" style="stroke:#181818;stroke-width:1;"/><line style="stroke:#181818;stroke-width:1;" x1="557.094" x2="567.094" y1="325.9063" y2="325.9063"/><line style="stroke:#181818;stroke-width:1;" x1="567.094" x2="567.094" y1="325.9063" y2="347.9063"/><polygon fill="#181818" points="563.094,337.9063,567.094,347.9063,571.094,337.9063,567.094,341.9063" style="stroke:#181818;stroke-width:1;"/><line style="stroke:#181818;stroke-width:1;" x1="410.7468" x2="410.7468" y1="293.9063" y2="313.9063"/><polygon fill="#181818" points="406.7468,303.9063,410.7468,313.9063,414.7468,303.9063,410.7468,307.9063" style="stroke:#181818;stroke-width:1;"/><line style="stroke:#181818;stroke-width:1;" x1="721.1331" x2="721.1331" y1="293.9063" y2="313.9063"/><polygon fill="#181818" points="717.1331,303.9063,721.1331,313.9063,725.1331,303.9063,721.1331,307.9063" style="stroke:#181818;stroke-width:1;"/><line style="stroke:#181818;stroke-width:1;" x1="438.9717" x2="410.7468" y1="237.9375" y2="237.9375"/><line style="stroke:#181818;stroke-width:1;" x1="410.7468" x2="410.7468" y1="237.9375" y2="259.9375"/><polygon fill="#181818" points="406.7468,249.9375,410.7468,259.9375,414.7468,249.9375,410.7468,253.9375" style="stroke:#181818;stroke-width:1;"/><line style="stroke:#181818;stroke-width:1;" x1="692.9082" x2="721.1331" y1="237.9375" y2="237.9375"/><line style="stroke:#181818;stroke-width:1;" x1="721.1331" x2="721.1331" y1="237.9375" y2="259.9375"/><polygon fill="#181818" points="717.1331,249.9375,721.1331,259.9375,725.1331,249.9375,721.1331,253.9375" style="stroke:#181818;stroke-width:1;"/><line style="stroke:#181818;stroke-width:1;" x1="565.9399" x2="565.9399" y1="205.9375" y2="225.9375"/><polygon fill="#181818" points="561.9399,215.9375,565.9399,225.9375,569.9399,215.9375,565.9399,219.9375" style="stroke:#181818;stroke-width:1;"/><line style="stroke:#181818;stroke-width:1;" x1="156.5703" x2="60.1025" y1="149.9688" y2="149.9688"/><line style="stroke:#181818;stroke-width:1;" x1="60.1025" x2="60.1025" y1="149.9688" y2="171.9688"/><polygon fill="#181818" points="56.1025,161.9688,60.1025,171.9688,64.1025,161.9688,60.1025,165.9688" style="stroke:#181818;stroke-width:1;"/><line style="stroke:#181818;stroke-width:1;" x1="429.4722" x2="565.9399" y1="149.9688" y2="149.9688"/><line style="stroke:#181818;stroke-width:1;" x1="565.9399" x2="565.9399" y1="149.9688" y2="171.9688"/><polygon fill="#181818" points="561.9399,161.9688,565.9399,171.9688,569.9399,161.9688,565.9399,165.9688" style="stroke:#181818;stroke-width:1;"/><line style="stroke:#181818;stroke-width:1;" x1="293.0212" x2="293.0212" y1="117.9688" y2="137.9688"/><polygon fill="#181818" points="289.0212,127.9688,293.0212,137.9688,297.0212,127.9688,293.0212,131.9688" style="stroke:#181818;stroke-width:1;"/><line style="stroke:#181818;stroke-width:1;" x1="847.678" x2="847.678" y1="381.875" y2="401.875"/><polygon fill="#181818" points="843.678,391.875,847.678,401.875,851.678,391.875,847.678,395.875" style="stroke:#181818;stroke-width:1;"/><line style="stroke:#181818;stroke-width:1;" x1="991.0715" x2="991.0715" y1="733.75" y2="753.75"/><polygon fill="#181818" points="987.0715,743.75,991.0715,753.75,995.0715,743.75,991.0715,747.75" style="stroke:#181818;stroke-width:1;"/><line style="stroke:#181818;stroke-width:1;" x1="1158.5234" x2="1158.5234" y1="821.7188" y2="841.7188"/><polygon fill="#181818" points="1154.5234,831.7188,1158.5234,841.7188,1162.5234,831.7188,1158.5234,835.7188" style="stroke:#181818;stroke-width:1;"/><line style="stroke:#181818;stroke-width:1;" x1="1437.1167" x2="1437.1167" y1="821.7188" y2="841.7188"/><polygon fill="#181818" points="1433.1167,831.7188,1437.1167,841.7188,1441.1167,831.7188,1437.1167,835.7188" style="stroke:#181818;stroke-width:1;"/><line style="stroke:#181818;stroke-width:1;" x1="1168.5234" x2="1158.5234" y1="765.75" y2="765.75"/><line style="stroke:#181818;stroke-width:1;" x1="1158.5234" x2="1158.5234" y1="765.75" y2="787.75"/><polygon fill="#181818" points="1154.5234,777.75,1158.5234,787.75,1162.5234,777.75,1158.5234,781.75" style="stroke:#181818;stroke-width:1;"/><line style="stroke:#181818;stroke-width:1;" x1="1427.1167" x2="1437.1167" y1="765.75" y2="765.75"/><line style="stroke:#181818;stroke-width:1;" x1="1437.1167" x2="1437.1167" y1="765.75" y2="787.75"/><polygon fill="#181818" points="1433.1167,777.75,1437.1167,787.75,1441.1167,777.75,1437.1167,781.75" style="stroke:#181818;stroke-width:1;"/><line style="stroke:#181818;stroke-width:1;" x1="1297.8201" x2="1297.8201" y1="733.75" y2="753.75"/><polygon fill="#181818" points="1293.8201,743.75,1297.8201,753.75,1301.8201,743.75,1297.8201,747.75" style="stroke:#181818;stroke-width:1;"/><line style="stroke:#181818;stroke-width:1;" x1="1001.0715" x2="991.0715" y1="677.7813" y2="677.7813"/><line style="stroke:#181818;stroke-width:1;" x1="991.0715" x2="991.0715" y1="677.7813" y2="699.7813"/><polygon fill="#181818" points="987.0715,689.7813,991.0715,699.7813,995.0715,689.7813,991.0715,693.7813" style="stroke:#181818;stroke-width:1;"/><line style="stroke:#181818;stroke-width:1;" x1="1287.8201" x2="1297.8201" y1="677.7813" y2="677.7813"/><line style="stroke:#181818;stroke-width:1;" x1="1297.8201" x2="1297.8201" y1="677.7813" y2="699.7813"/><polygon fill="#181818" points="1293.8201,689.7813,1297.8201,699.7813,1301.8201,689.7813,1297.8201,693.7813" style="stroke:#181818;stroke-width:1;"/><line style="stroke:#181818;stroke-width:1;" x1="1144.4458" x2="1144.4458" y1="645.7813" y2="665.7813"/><polygon fill="#181818" points="1140.4458,655.7813,1144.4458,665.7813,1148.4458,655.7813,1144.4458,659.7813" style="stroke:#181818;stroke-width:1;"/><line style="stroke:#181818;stroke-width:1;" x1="1596.7612" x2="1596.7612" y1="645.7813" y2="665.7813"/><polygon fill="#181818" points="1592.7612,655.7813,1596.7612,665.7813,1600.7612,655.7813,1596.7612,659.7813" style="stroke:#181818;stroke-width:1;"/><line style="stroke:#181818;stroke-width:1;" x1="1181.5696" x2="1144.4458" y1="589.8125" y2="589.8125"/><line style="stroke:#181818;stroke-width:1;" x1="1144.4458" x2="1144.4458" y1="589.8125" y2="611.8125"/><polygon fill="#181818" points="1140.4458,601.8125,1144.4458,611.8125,1148.4458,601.8125,1144.4458,605.8125" style="stroke:#181818;stroke-width:1;"/><line style="stroke:#181818;stroke-width:1;" x1="1559.6375" x2="1596.7612" y1="589.8125" y2="589.8125"/><line style="stroke:#181818;stroke-width:1;" x1="1596.7612" x2="1596.7612" y1="589.8125" y2="611.8125"/><polygon fill="#181818" points="1592.7612,601.8125,1596.7612,611.8125,1600.7612,601.8125,1596.7612,605.8125" style="stroke:#181818;stroke-width:1;"/><line style="stroke:#181818;stroke-width:1;" x1="1370.6035" x2="1370.6035" y1="557.8125" y2="577.8125"/><polygon fill="#181818" points="1366.6035,567.8125,1370.6035,577.8125,1374.6035,567.8125,1370.6035,571.8125" style="stroke:#181818;stroke-width:1;"/><line style="stroke:#181818;stroke-width:1;" x1="1790.1646" x2="1790.1646" y1="645.7813" y2="665.7813"/><polygon fill="#181818" points="1786.1646,655.7813,1790.1646,665.7813,1794.1646,655.7813,1790.1646,659.7813" style="stroke:#181818;stroke-width:1;"/><line style="stroke:#181818;stroke-width:1;" x1="1973.5679" x2="1973.5679" y1="733.75" y2="753.75"/><polygon fill="#181818" points="1969.5679,743.75,1973.5679,753.75,1977.5679,743.75,1973.5679,747.75" style="stroke:#181818;stroke-width:1;"/><line style="stroke:#181818;stroke-width:1;" x1="2259.0093" x2="2259.0093" y1="733.75" y2="753.75"/><polygon fill="#181818" points="2255.0093,743.75,2259.0093,753.75,2263.0093,743.75,2259.0093,747.75" style="stroke:#181818;stroke-width:1;"/><line style="stroke:#181818;stroke-width:1;" x1="1983.5679" x2="1973.5679" y1="677.7813" y2="677.7813"/><line style="stroke:#181818;stroke-width:1;" x1="1973.5679" x2="1973.5679" y1="677.7813" y2="699.7813"/><polygon fill="#181818" points="1969.5679,689.7813,1973.5679,699.7813,1977.5679,689.7813,1973.5679,693.7813" style="stroke:#181818;stroke-width:1;"/><line style="stroke:#181818;stroke-width:1;" x1="2249.0093" x2="2259.0093" y1="677.7813" y2="677.7813"/><line style="stroke:#181818;stroke-width:1;" x1="2259.0093" x2="2259.0093" y1="677.7813" y2="699.7813"/><polygon fill="#181818" points="2255.0093,689.7813,2259.0093,699.7813,2263.0093,689.7813,2259.0093,693.7813" style="stroke:#181818;stroke-width:1;"/><line style="stroke:#181818;stroke-width:1;" x1="2116.2886" x2="2116.2886" y1="645.7813" y2="665.7813"/><polygon fill="#181818" points="2112.2886,655.7813,2116.2886,665.7813,2120.2886,655.7813,2116.2886,659.7813" style="stroke:#181818;stroke-width:1;"/><line style="stroke:#181818;stroke-width:1;" x1="1836.0847" x2="1790.1646" y1="589.8125" y2="589.8125"/><line style="stroke:#181818;stroke-width:1;" x1="1790.1646" x2="1790.1646" y1="589.8125" y2="611.8125"/><polygon fill="#181818" points="1786.1646,601.8125,1790.1646,611.8125,1794.1646,601.8125,1790.1646,605.8125" style="stroke:#181818;stroke-width:1;"/><line style="stroke:#181818;stroke-width:1;" x1="2070.3684" x2="2116.2886" y1="589.8125" y2="589.8125"/><line style="stroke:#181818;stroke-width:1;" x1="2116.2886" x2="2116.2886" y1="589.8125" y2="611.8125"/><polygon fill="#181818" points="2112.2886,601.8125,2116.2886,611.8125,2120.2886,601.8125,2116.2886,605.8125" style="stroke:#181818;stroke-width:1;"/><line style="stroke:#181818;stroke-width:1;" x1="1953.2266" x2="1953.2266" y1="557.8125" y2="577.8125"/><polygon fill="#181818" points="1949.2266,567.8125,1953.2266,577.8125,1957.2266,567.8125,1953.2266,571.8125" style="stroke:#181818;stroke-width:1;"/><line style="stroke:#181818;stroke-width:1;" x1="1569.7568" x2="1370.6035" y1="501.8438" y2="501.8438"/><line style="stroke:#181818;stroke-width:1;" x1="1370.6035" x2="1370.6035" y1="501.8438" y2="523.8438"/><polygon fill="#181818" points="1366.6035,513.8438,1370.6035,523.8438,1374.6035,513.8438,1370.6035,517.8438" style="stroke:#181818;stroke-width:1;"/><line style="stroke:#181818;stroke-width:1;" x1="1754.0732" x2="1953.2266" y1="501.8438" y2="501.8438"/><line style="stroke:#181818;stroke-width:1;" x1="1953.2266" x2="1953.2266" y1="501.8438" y2="523.8438"/><polygon fill="#181818" points="1949.2266,513.8438,1953.2266,523.8438,1957.2266,513.8438,1953.2266,517.8438" style="stroke:#181818;stroke-width:1;"/><line style="stroke:#181818;stroke-width:1;" x1="1661.915" x2="1661.915" y1="469.8438" y2="489.8438"/><polygon fill="#181818" points="1657.915,479.8438,1661.915,489.8438,1665.915,479.8438,1661.915,483.8438" style="stroke:#181818;stroke-width:1;"/><line style="stroke:#181818;stroke-width:1;" x1="2384.8218" x2="2384.8218" y1="469.8438" y2="489.8438"/><polygon fill="#181818" points="2380.8218,479.8438,2384.8218,489.8438,2388.8218,479.8438,2384.8218,483.8438" style="stroke:#181818;stroke-width:1;"/><line style="stroke:#181818;stroke-width:1;" x1="1958.0234" x2="1661.915" y1="413.875" y2="413.875"/><line style="stroke:#181818;stroke-width:1;" x1="1661.915" x2="1661.915" y1="413.875" y2="435.875"/><polygon fill="#181818" points="1657.915,425.875,1661.915,435.875,1665.915,425.875,1661.915,429.875" style="stroke:#181818;stroke-width:1;"/><line style="stroke:#181818;stroke-width:1;" x1="2128.7134" x2="2384.8218" y1="413.875" y2="413.875"/><line style="stroke:#181818;stroke-width:1;" x1="2384.8218" x2="2384.8218" y1="413.875" y2="435.875"/><polygon fill="#181818" points="2380.8218,425.875,2384.8218,435.875,2388.8218,425.875,2384.8218,429.875" style="stroke:#181818;stroke-width:1;"/><line style="stroke:#181818;stroke-width:1;" x1="2043.3684" x2="2043.3684" y1="381.875" y2="401.875"/><polygon fill="#181818" points="2039.3684,391.875,2043.3684,401.875,2047.3684,391.875,2043.3684,395.875" style="stroke:#181818;stroke-width:1;"/><line style="stroke:#181818;stroke-width:1;" x1="1323.0396" x2="847.678" y1="325.9063" y2="325.9063"/><line style="stroke:#181818;stroke-width:1;" x1="847.678" x2="847.678" y1="325.9063" y2="347.9063"/><polygon fill="#181818" points="843.678,337.9063,847.678,347.9063,851.678,337.9063,847.678,341.9063" style="stroke:#181818;stroke-width:1;"/><line style="stroke:#181818;stroke-width:1;" x1="1518.0068" x2="2043.3684" y1="325.9063" y2="325.9063"/><line style="stroke:#181818;stroke-width:1;" x1="2043.3684" x2="2043.3684" y1="325.9063" y2="347.9063"/><polygon fill="#181818" points="2039.3684,337.9063,2043.3684,347.9063,2047.3684,337.9063,2043.3684,341.9063" style="stroke:#181818;stroke-width:1;"/><line style="stroke:#181818;stroke-width:1;" x1="1420.5232" x2="1420.5232" y1="293.9063" y2="313.9063"/><polygon fill="#181818" points="1416.5232,303.9063,1420.5232,313.9063,1424.5232,303.9063,1420.5232,307.9063" style="stroke:#181818;stroke-width:1;"/><line style="stroke:#181818;stroke-width:1;" x1="2497.3228" x2="2497.3228" y1="381.875" y2="401.875"/><polygon fill="#181818" points="2493.3228,391.875,2497.3228,401.875,2501.3228,391.875,2497.3228,395.875" style="stroke:#181818;stroke-width:1;"/><line style="stroke:#181818;stroke-width:1;" x1="2901.3311" x2="2901.3311" y1="381.875" y2="401.875"/><polygon fill="#181818" points="2897.3311,391.875,2901.3311,401.875,2905.3311,391.875,2901.3311,395.875" style="stroke:#181818;stroke-width:1;"/><line style="stroke:#181818;stroke-width:1;" x1="2507.3228" x2="2497.3228" y1="325.9063" y2="325.9063"/><line style="stroke:#181818;stroke-width:1;" x1="2497.3228" x2="2497.3228" y1="325.9063" y2="347.9063"/><polygon fill="#181818" points="2493.3228,337.9063,2497.3228,347.9063,2501.3228,337.9063,2497.3228,341.9063" style="stroke:#181818;stroke-width:1;"/><line style="stroke:#181818;stroke-width:1;" x1="2891.3311" x2="2901.3311" y1="325.9063" y2="325.9063"/><line style="stroke:#181818;stroke-width:1;" x1="2901.3311" x2="2901.3311" y1="325.9063" y2="347.9063"/><polygon fill="#181818" points="2897.3311,337.9063,2901.3311,347.9063,2905.3311,337.9063,2901.3311,341.9063" style="stroke:#181818;stroke-width:1;"/><line style="stroke:#181818;stroke-width:1;" x1="2699.3269" x2="2699.3269" y1="293.9063" y2="313.9063"/><polygon fill="#181818" points="2695.3269,303.9063,2699.3269,313.9063,2703.3269,303.9063,2699.3269,307.9063" style="stroke:#181818;stroke-width:1;"/><line style="stroke:#181818;stroke-width:1;" x1="1957.5947" x2="1420.5232" y1="237.9375" y2="237.9375"/><line style="stroke:#181818;stroke-width:1;" x1="1420.5232" x2="1420.5232" y1="237.9375" y2="259.9375"/><polygon fill="#181818" points="1416.5232,249.9375,1420.5232,259.9375,1424.5232,249.9375,1420.5232,253.9375" style="stroke:#181818;stroke-width:1;"/><line style="stroke:#181818;stroke-width:1;" x1="2202.2554" x2="2699.3269" y1="237.9375" y2="237.9375"/><line style="stroke:#181818;stroke-width:1;" x1="2699.3269" x2="2699.3269" y1="237.9375" y2="259.9375"/><polygon fill="#181818" points="2695.3269,249.9375,2699.3269,259.9375,2703.3269,249.9375,2699.3269,253.9375" style="stroke:#181818;stroke-width:1;"/><line style="stroke:#181818;stroke-width:1;" x1="2079.925" x2="2079.925" y1="205.9375" y2="225.9375"/><polygon fill="#181818" points="2075.925,215.9375,2079.925,225.9375,2083.925,215.9375,2079.925,219.9375" style="stroke:#181818;stroke-width:1;"/><line style="stroke:#181818;stroke-width:1;" x1="3004.8486" x2="3004.8486" y1="205.9375" y2="225.9375"/><polygon fill="#181818" points="3000.8486,215.9375,3004.8486,225.9375,3008.8486,215.9375,3004.8486,219.9375" style="stroke:#181818;stroke-width:1;"/><line style="stroke:#181818;stroke-width:1;" x1="2416.0636" x2="2079.925" y1="149.9688" y2="149.9688"/><line style="stroke:#181818;stroke-width:1;" x1="2079.925" x2="2079.925" y1="149.9688" y2="171.9688"/><polygon fill="#181818" points="2075.925,161.9688,2079.925,171.9688,2083.925,161.9688,2079.925,165.9688" style="stroke:#181818;stroke-width:1;"/><line style="stroke:#181818;stroke-width:1;" x1="2658.7101" x2="3004.8486" y1="149.9688" y2="149.9688"/><line style="stroke:#181818;stroke-width:1;" x1="3004.8486" x2="3004.8486" y1="149.9688" y2="171.9688"/><polygon fill="#181818" points="3000.8486,161.9688,3004.8486,171.9688,3008.8486,161.9688,3004.8486,165.9688" style="stroke:#181818;stroke-width:1;"/><line style="stroke:#181818;stroke-width:1;" x1="2537.3868" x2="2537.3868" y1="117.9688" y2="137.9688"/><polygon fill="#181818" points="2533.3868,127.9688,2537.3868,137.9688,2541.3868,127.9688,2537.3868,131.9688" style="stroke:#181818;stroke-width:1;"/><line style="stroke:#181818;stroke-width:1;" x1="1257.9033" x2="293.0212" y1="62" y2="62"/><line style="stroke:#181818;stroke-width:1;" x1="293.0212" x2="293.0212" y1="62" y2="84"/><polygon fill="#181818" points="289.0212,74,293.0212,84,297.0212,74,293.0212,78" style="stroke:#181818;stroke-width:1;"/><line style="stroke:#181818;stroke-width:1;" x1="1502.5048" x2="2537.3868" y1="62" y2="62"/><line style="stroke:#181818;stroke-width:1;" x1="2537.3868" x2="2537.3868" y1="62" y2="84"/><polygon fill="#181818" points="2533.3868,74,2537.3868,84,2541.3868,74,2537.3868,78" style="stroke:#181818;stroke-width:1;"/><line style="stroke:#181818;stroke-width:1;" x1="1380.204" x2="1380.204" y1="30" y2="50"/><polygon fill="#181818" points="1376.204,40,1380.204,50,1384.204,40,1380.204,44" style="stroke:#181818;stroke-width:1;"/><!--SRC=[hLV1JkCm4Btp5NC398HA9IxjORKKiLk9GjGWq1vDCaqi73ko7Qh-_OwTDcb8qwI27Y29PzuyJzwC9yOoRS_u2Yxk5HgmASBv6-CMh8BGhPs3u4bgWGjHP5moYxykdPc4YtzeBi-0VfDWjfZwAmSqzp0QWO5GoY14ASz1QSYrIZJBCjIW991F6ycZBJ5JdwNRj7fghChz3Gg2l7XIUmuF1JqQZsjZHsEMOlG1gt892XbJMBUzLAdu6eWaRJAXwyCajaHYM7EDqyRZ6bnlru5Pjvrhy3aat9GH_vlnA-HgZRexWe_oWiQxGynL_2LMCwUrLG_plHtaWaNUSNhGeahh_g-TuYxGBixTq3BcgxDXmHg1D0gsQGTg1Ma6E0nU0Q- -2gS5MSELLqt0oGkBKfMXHLthlooaQW6ycDSf5oHfpUG7bqc7y6VRPGXpnBWfvwq2TWXWd8aJda16-XcFHh0C5aV476RguokFjh2huZK7p7k4_4UeDGIYI60vz6LrltkVYuWPzvA4E5eLKSCKr0eK5mEAuw500LoI5_r_LsjnMCUDjAosFYvkvTSVguuNQ3IcA7l64fD2CAlqjDF91VSDeWgOxm6uXte7KZKrZSpwPiSawGA2S3wCO9bttzd-1i_1zAXXtGKT2MTVCTiHgSHvEpgHXMTonsAOto-kNFbVmHlNBS4ExZh3czk1NCo39JmLjZ_qdYGjIKGMrfrpxjP1kEoWfAp8c9RfI3qj7LLANAgl7E9qa4zlFaxBITdr77rYFZWpmucqZeVJB8PjP38ZNKfu8FfXf17byHqSPTxDfv_BP548otFgi2_KmSpnBb3DPv-OyeXy_92HxH2iGpYXpaEgfcrWy8tfdhD4AiFDTv8nBFtX9ikjoWmObg6haNTbqt87_KtdDxK-bmQp0_4tBQ0JcyrfYlZfHkDVm2EN224AZAYPKmir1PgVe76yOBhbUt2bPpJy7SVmpCNt1i8X4zmTitJ6RS2TZUqfvb5HexIxO_FTst8tcXFq9uyB9iJ6drA-dfImBC7wkBePNT- -zimw_ji8zVTcdBiTiTFdsdeiRNyEkLDY5eIj8xF-X2f7MVVtFm00]--></g></svg>